<?xml version="1.0" standalone="no"?>
<!DOCTYPE svg PUBLIC "-//W3C//DTD SVG 20010904//EN"
 "http://www.w3.org/TR/2001/REC-SVG-20010904/DTD/svg10.dtd">
<svg version="1.0" xmlns="http://www.w3.org/2000/svg"
 width="700.000000pt" height="700.000000pt" viewBox="0 0 700.000000 700.000000"
 preserveAspectRatio="xMidYMid meet">
<metadata>
Created by potrace 1.14, written by Peter Selinger 2001-2017
</metadata>
<g transform="translate(0.000000,700.000000) scale(0.100000,-0.100000)"
fill="#000000" stroke="none">
<path d="M1194 6990 c-621 -82 -1106 -571 -1184 -1192 -14 -114 -14 -4482 0
-4596 39 -307 175 -586 391 -800 185 -184 401 -304 666 -370 l108 -27 2255 -3
c1472 -2 2288 1 2350 7 438 47 821 299 1044 686 58 102 118 261 148 395 l23
105 0 2305 0 2305 -23 105 c-62 276 -186 504 -381 696 -186 185 -392 296 -676
366 l-90 22 -2285 2 c-1257 1 -2312 -2 -2346 -6z m2289 -2831 c425 -691 780
-1267 789 -1280 16 -23 17 49 17 1259 l1 1282 345 0 345 0 0 -1850 0 -1850
-349 0 -348 0 -784 1279 -784 1280 -3 -1280 -2 -1279 -348 2 -347 3 -3 1835
c-1 1009 0 1841 3 1848 3 10 79 12 351 10 l346 -3 771 -1256z"/>
</g>
</svg>
